<svg width="50" height="50" viewBox="0 0 50 50" fill="none" xmlns="http://www.w3.org/2000/svg">
<path d="M46.4286 28.5714H28.5714V46.4286C28.5714 47.3758 28.1952 48.2842 27.5254 48.954C26.8556 49.6237 25.9472 50 25 50C24.0528 50 23.1444 49.6237 22.4746 48.954C21.8048 48.2842 21.4286 47.3758 21.4286 46.4286V28.5714H3.57143C2.62423 28.5714 1.71582 28.1952 1.04605 27.5254C0.376275 26.8556 0 25.9472 0 25C0 24.0528 0.376275 23.1444 1.04605 22.4746C1.71582 21.8048 2.62423 21.4286 3.57143 21.4286H21.4286V3.57143C21.4286 2.62423 21.8048 1.71582 22.4746 1.04605C23.1444 0.376273 24.0528 0 25 0C25.9472 0 26.8556 0.376273 27.5254 1.04605C28.1952 1.71582 28.5714 2.62423 28.5714 3.57143V21.4286H46.4286C47.3758 21.4286 48.2842 21.8048 48.954 22.4746C49.6237 23.1444 50 24.0528 50 25C50 25.9472 49.6237 26.8556 48.954 27.5254C48.2842 28.1952 47.3758 28.5714 46.4286 28.5714Z" fill="white"/>
</svg>
