<svg width="13" height="15" viewBox="0 0 13 15" fill="none" xmlns="http://www.w3.org/2000/svg">
<path d="M3.94629 0.5H9.05371C9.16556 0.500037 9.27382 0.544772 9.35449 0.625977C9.4354 0.707664 9.48242 0.819933 9.48242 0.9375V3.3125H12.3037C12.3541 3.31254 12.4033 3.33275 12.4404 3.37012C12.4778 3.40785 12.5 3.46022 12.5 3.51562C12.5 3.57103 12.4778 3.6234 12.4404 3.66113C12.4033 3.6985 12.3541 3.71871 12.3037 3.71875H11.501L11.4658 4.18066L10.7764 13.2305C10.75 13.5773 10.595 13.9008 10.3438 14.1357C10.0926 14.3706 9.76332 14.5 9.42285 14.5H3.57715C3.23668 14.5 2.90737 14.3706 2.65625 14.1357C2.43637 13.9301 2.29001 13.6568 2.23926 13.3594L2.22363 13.2305L1.53418 4.18066L1.49902 3.71875H0.696289C0.645914 3.71871 0.59672 3.6985 0.55957 3.66113C0.522196 3.6234 0.5 3.57103 0.5 3.51562L0.503906 3.47461C0.511829 3.43487 0.53159 3.39837 0.55957 3.37012C0.59672 3.33275 0.645914 3.31254 0.696289 3.3125H3.51758V0.9375C3.51758 0.819932 3.5646 0.707664 3.64551 0.625977C3.72618 0.544772 3.83444 0.500037 3.94629 0.5ZM1.93457 4.25684L2.61621 13.1982C2.63447 13.4401 2.74228 13.6676 2.91992 13.834C3.07546 13.9796 3.27447 14.0686 3.48535 14.0889L3.57617 14.0938H9.42383C9.66798 14.0934 9.90236 14.0003 10.0801 13.834C10.2577 13.6676 10.3655 13.4401 10.3838 13.1982L11.0654 4.25684L11.1064 3.71875H1.89355L1.93457 4.25684ZM3.91113 3.3125H9.08887V0.90625H3.91113V3.3125Z" fill="black" stroke="white"/>
</svg>
