<svg width="25" height="31" viewBox="0 0 25 31" fill="none" xmlns="http://www.w3.org/2000/svg">
<path d="M12.7661 30.0962L12.7498 30.0992L12.6443 30.1512L12.6146 30.1571L12.5938 30.1512L12.4883 30.0992C12.4725 30.0942 12.4606 30.0967 12.4527 30.1066L12.4467 30.1215L12.4215 30.7573L12.4289 30.787L12.4437 30.8063L12.5982 30.9163L12.6205 30.9222L12.6384 30.9163L12.7929 30.8063L12.8107 30.7826L12.8166 30.7573L12.7914 30.1229C12.7874 30.1071 12.779 30.0982 12.7661 30.0962ZM13.1598 29.9283L13.1405 29.9313L12.8657 30.0695L12.8508 30.0843L12.8463 30.1007L12.8731 30.7395L12.8805 30.7573L12.8924 30.7677L13.191 30.9059C13.2098 30.9108 13.2242 30.9069 13.2341 30.894L13.24 30.8732L13.1895 29.961C13.1846 29.9432 13.1747 29.9323 13.1598 29.9283ZM12.0976 29.9313C12.091 29.9273 12.0832 29.926 12.0757 29.9277C12.0683 29.9294 12.0617 29.9339 12.0575 29.9402L12.0486 29.961L11.998 30.8732C11.999 30.891 12.0075 30.9029 12.0233 30.9089L12.0456 30.9059L12.3442 30.7677L12.3591 30.7558L12.365 30.7395L12.3903 30.1007L12.3858 30.0828L12.3709 30.068L12.0976 29.9313Z" fill="white"/>
<path d="M11.8851 0C12.2638 0.000420001 12.628 0.145413 12.9033 0.405354C13.1787 0.665295 13.3444 1.02056 13.3666 1.39857C13.3888 1.77658 13.2658 2.1488 13.0227 2.43917C12.7797 2.72954 12.435 2.91615 12.059 2.96088L11.8851 2.97128H4.45692C4.09304 2.97132 3.74183 3.10492 3.46991 3.34672C3.19798 3.58852 3.02426 3.92171 2.98168 4.28309L2.97128 4.45691V22.2846C2.97133 22.6485 3.10493 22.9997 3.34673 23.2716C3.58853 23.5435 3.92172 23.7172 4.2831 23.7598L4.45692 23.7702H11.1423C11.521 23.7706 11.8852 23.9156 12.1605 24.1756C12.4359 24.4355 12.6016 24.7908 12.6238 25.1688C12.6459 25.5468 12.523 25.919 12.2799 26.2094C12.0369 26.4998 11.6921 26.6864 11.3161 26.7311L11.1423 26.7415H4.45692C3.3201 26.7416 2.22621 26.3072 1.39909 25.5273C0.571962 24.7474 0.0741223 23.6809 0.00742838 22.546L6.92375e-09 22.2846V4.45691C-6.33206e-05 3.32009 0.43429 2.22621 1.21419 1.39908C1.99409 0.57196 3.06058 0.0741222 4.19545 0.00742836L4.45692 0H11.8851ZM20.3637 8.11753L24.5651 12.3204C24.8436 12.599 25.0001 12.9768 25.0001 13.3707C25.0001 13.7647 24.8436 14.1425 24.5651 14.4211L20.3637 18.624C20.0849 18.9025 19.7069 19.059 19.3128 19.0588C18.9187 19.0587 18.5408 18.902 18.2622 18.6232C17.9837 18.3444 17.8273 17.9664 17.8274 17.5723C17.8275 17.1782 17.9842 16.8004 18.263 16.5218L19.9284 14.8564H11.8851C11.4911 14.8564 11.1132 14.6999 10.8346 14.4212C10.556 14.1426 10.3995 13.7648 10.3995 13.3707C10.3995 12.9767 10.556 12.5989 10.8346 12.3202C11.1132 12.0416 11.4911 11.8851 11.8851 11.8851H19.9284L18.263 10.2197C17.9842 9.94114 17.8275 9.56324 17.8274 9.16914C17.8273 8.77505 17.9837 8.39704 18.2622 8.11827C18.5408 7.8395 18.9187 7.68282 19.3128 7.68268C19.7069 7.68254 20.0849 7.83896 20.3637 8.11753Z" fill="white"/>
</svg>
