<svg width="13" height="14" viewBox="0 0 13 14" fill="none" xmlns="http://www.w3.org/2000/svg">
<path fill-rule="evenodd" clip-rule="evenodd" d="M0 1.081C0 0.794303 0.113891 0.519346 0.316619 0.316619C0.519346 0.113891 0.794303 0 1.081 0H11.891C12.1777 0 12.4527 0.113891 12.6554 0.316619C12.8581 0.519346 12.972 0.794303 12.972 1.081V2.58432C12.972 2.96655 12.82 3.3331 12.5497 3.60334L8.64803 7.50504V12.8553C8.64805 12.9904 8.61352 13.1233 8.54772 13.2414C8.48192 13.3594 8.38704 13.4587 8.27208 13.5297C8.15713 13.6008 8.02592 13.6413 7.89091 13.6473C7.75591 13.6534 7.62159 13.6249 7.50072 13.5644L4.82199 12.2254C4.67236 12.1506 4.54652 12.0356 4.45856 11.8933C4.37061 11.751 4.32402 11.587 4.32401 11.4197V7.50504L0.422312 3.60334C0.15199 3.3331 8.16336e-05 2.96655 0 2.58432V1.081Z" fill="#3AECA5"/>
</svg>
