<svg width="229" height="61" viewBox="0 0 229 61" fill="none" xmlns="http://www.w3.org/2000/svg">
<path d="M12.1305 13C12.429 13 12.7132 13.0753 12.9713 13.2114C13.1158 13.2683 13.2576 13.3451 13.3943 13.4427C14.4174 14.1731 14.7667 15.788 14.1743 17.0496L6.82187 32.7087H31.717L32.8737 30.2452H13.1295C12.5778 30.2452 12.1305 29.6937 12.1305 29.0134C12.1305 28.3331 12.5778 27.7816 13.1295 27.7816H34.0305L34.9393 25.8459H14.842C14.2903 25.8459 13.843 25.2944 13.843 24.6141C13.843 23.9338 14.2903 23.3823 14.842 23.3823H35.8206C35.9091 23.3823 35.9949 23.3967 36.0766 23.4234L37.0064 21.4433C37.5987 20.1817 38.9084 19.7511 39.9315 20.4815C40.9547 21.2119 41.3039 22.8268 40.7116 24.0884L34.928 36.406C34.5973 37.3372 33.8436 37.9879 32.9664 37.9879H28.6025C28.9869 39.1935 28.9379 40.596 28.3706 41.8042C27.3834 43.9069 25.2007 44.6246 23.4954 43.4072C21.9466 42.3016 21.3244 39.98 21.963 37.9879H14.6168C15.0012 39.1935 14.9522 40.596 14.3849 41.8042C13.3976 43.9069 11.215 44.6246 9.5097 43.4072C7.96089 42.3016 7.33866 39.98 7.97722 37.9879H3.13966C1.95739 37.9879 0.998982 36.8061 0.998982 35.3483C0.998982 34.9566 1.06827 34.5848 1.19242 34.2506C1.23577 34.1002 1.2908 33.9525 1.35799 33.8094L8.6498 18.2791H2.14068C0.958413 18.2791 0 17.0974 0 15.6396C0 14.1818 0.958413 13 2.14068 13H12.1305Z" fill="#0B4B53"/>
<path d="M61.12 41.6C58.1333 41.6 55.5733 41.08 53.44 40.04C51.3067 38.9733 49.6667 37.4667 48.52 35.52C47.3733 33.5467 46.8 31.1867 46.8 28.44C46.8 25.5333 47.4 23 48.6 20.84C49.8267 18.68 51.5333 17 53.72 15.8C55.9067 14.6 58.4533 14 61.36 14C63.0133 14 64.5733 14.1867 66.04 14.56C67.5333 14.9333 68.8533 15.4667 70 16.16L68.6 20.96C67.56 20.32 66.4 19.8267 65.12 19.48C63.8667 19.1067 62.6133 18.92 61.36 18.92C59.6 18.92 58.0533 19.3067 56.72 20.08C55.3867 20.8267 54.3467 21.88 53.6 23.24C52.8533 24.6 52.48 26.2 52.48 28.04C52.48 30.7067 53.28 32.8133 54.88 34.36C56.5067 35.88 58.72 36.64 61.52 36.64C62.64 36.64 63.68 36.56 64.64 36.4V30.88H61.28V26.2H69.96V40.04C67.2133 41.08 64.2667 41.6 61.12 41.6ZM75.2591 41V20.4H80.8991V23.76H81.2191C81.9124 22.5333 82.6324 21.5733 83.3791 20.88C84.1524 20.16 85.1524 19.8 86.3791 19.8C86.8591 19.8 87.2591 19.8533 87.5791 19.96L86.9791 26.04C86.6857 25.96 86.4057 25.8933 86.1391 25.84C85.8724 25.7867 85.5924 25.76 85.2991 25.76C84.3124 25.76 83.5257 26.0533 82.9391 26.64C82.3524 27.2 81.6724 27.96 80.8991 28.92V41H75.2591ZM99.9325 41.6C97.8258 41.6 95.9858 41.1467 94.4125 40.24C92.8392 39.3333 91.6125 38.0667 90.7325 36.44C89.8525 34.8133 89.4125 32.9067 89.4125 30.72C89.4125 28.5333 89.8525 26.6267 90.7325 25C91.6125 23.3733 92.8392 22.1067 94.4125 21.2C95.9858 20.2933 97.8125 19.84 99.8925 19.84C101.999 19.84 103.826 20.2933 105.373 21.2C106.946 22.08 108.173 23.3333 109.053 24.96C109.933 26.56 110.373 28.44 110.373 30.6C110.373 32.7867 109.933 34.7067 109.053 36.36C108.199 38.0133 106.986 39.3067 105.413 40.24C103.839 41.1467 102.013 41.6 99.9325 41.6ZM99.8925 36.72C101.333 36.72 102.479 36.1733 103.333 35.08C104.213 33.96 104.653 32.4933 104.653 30.68C104.653 28.8667 104.213 27.4267 103.333 26.36C102.479 25.2667 101.333 24.72 99.8925 24.72C98.4525 24.72 97.2925 25.2667 96.4125 26.36C95.5592 27.4267 95.1325 28.8667 95.1325 30.68C95.1325 32.4933 95.5592 33.96 96.4125 35.08C97.2925 36.1733 98.4525 36.72 99.8925 36.72ZM124.348 41.6C120.935 41.6 118.282 40.6933 116.388 38.88C114.522 37.0667 113.588 34.5067 113.588 31.2C113.588 28.9333 114.028 26.9467 114.908 25.24C115.788 23.5333 117.028 22.2133 118.628 21.28C120.228 20.32 122.082 19.84 124.188 19.84C125.202 19.84 126.242 19.96 127.308 20.2C128.375 20.4133 129.202 20.6667 129.788 20.96L128.708 25.72C128.095 25.4267 127.415 25.2 126.668 25.04C125.922 24.8533 125.242 24.76 124.628 24.76C123.002 24.76 121.682 25.32 120.668 26.44C119.655 27.56 119.148 29.04 119.148 30.88C119.148 32.7467 119.668 34.1867 120.708 35.2C121.748 36.2133 123.202 36.72 125.068 36.72C126.322 36.72 127.668 36.48 129.108 36L129.948 40.56C129.042 40.9067 128.122 41.16 127.188 41.32C126.282 41.5067 125.335 41.6 124.348 41.6ZM143.492 41.6C140.185 41.6 137.572 40.64 135.652 38.72C133.732 36.8 132.772 34.1333 132.772 30.72C132.772 28.48 133.185 26.5467 134.012 24.92C134.839 23.2933 135.999 22.04 137.492 21.16C139.012 20.28 140.785 19.84 142.812 19.84C145.799 19.84 148.092 20.8 149.692 22.72C151.292 24.64 152.092 27.4133 152.092 31.04C152.092 31.28 152.092 31.52 152.092 31.76C152.092 31.9733 152.079 32.1867 152.052 32.4H138.452C138.985 35.28 140.892 36.72 144.172 36.72C145.185 36.72 146.212 36.6 147.252 36.36C148.319 36.0933 149.252 35.7467 150.052 35.32L150.972 39.84C148.759 41.0133 146.265 41.6 143.492 41.6ZM138.412 28.16H146.692C146.612 27.0133 146.212 26.1067 145.492 25.44C144.772 24.7467 143.812 24.4 142.612 24.4C141.465 24.4 140.519 24.7333 139.772 25.4C139.052 26.0667 138.599 26.9867 138.412 28.16Z" fill="#0B4B53"/>
<path d="M156.94 43V15.028H163.03V37.708H173.11V43H156.94ZM179.635 17.8V12.34H186.397V17.8H179.635ZM176.359 43V37.918H180.391V26.452H176.359V21.37H186.313V37.918H189.925V43H176.359ZM200.107 43.63C198.735 43.63 197.405 43.49 196.117 43.21C194.857 42.93 193.779 42.552 192.883 42.076L193.429 37.036C194.381 37.624 195.431 38.1 196.579 38.464C197.727 38.828 198.805 39.01 199.813 39.01C200.709 39.01 201.493 38.842 202.165 38.506C202.837 38.17 203.173 37.652 203.173 36.952C203.173 36.28 202.809 35.79 202.081 35.482C201.381 35.174 200.289 34.74 198.805 34.18C198.245 33.956 197.615 33.704 196.915 33.424C196.243 33.144 195.599 32.78 194.983 32.332C194.367 31.856 193.863 31.254 193.471 30.526C193.079 29.77 192.883 28.832 192.883 27.712C192.883 26.2 193.261 24.94 194.017 23.932C194.801 22.896 195.865 22.112 197.209 21.58C198.553 21.048 200.065 20.782 201.745 20.782C202.893 20.782 204.013 20.894 205.105 21.118C206.225 21.342 207.289 21.636 208.297 22L207.499 26.998C206.687 26.522 205.763 26.144 204.727 25.864C203.719 25.556 202.767 25.402 201.871 25.402C201.003 25.402 200.275 25.556 199.687 25.864C199.127 26.144 198.847 26.592 198.847 27.208C198.847 27.712 199.043 28.118 199.435 28.426C199.827 28.706 200.359 28.958 201.031 29.182C201.703 29.378 202.445 29.644 203.257 29.98C204.069 30.288 204.923 30.68 205.819 31.156C206.743 31.632 207.527 32.304 208.171 33.172C208.815 34.04 209.137 35.23 209.137 36.742C209.137 38.338 208.731 39.654 207.919 40.69C207.135 41.698 206.057 42.44 204.685 42.916C203.341 43.392 201.815 43.63 200.107 43.63ZM221.475 43.63C219.459 43.63 217.891 43.126 216.771 42.118C215.679 41.082 215.133 39.626 215.133 37.75V26.452H211.773V21.37H215.133V16.75C217.149 16.414 219.109 16.162 221.013 15.994V21.37H226.473V26.452H221.013V36.658C221.013 37.862 221.685 38.464 223.029 38.464C223.813 38.464 224.709 38.282 225.717 37.918L227.019 42.37C225.227 43.21 223.379 43.63 221.475 43.63Z" fill="#3AECA5"/>
</svg>
