<svg width="100" height="100" viewBox="0 0 100 100" fill="none" xmlns="http://www.w3.org/2000/svg">
<rect width="100" height="100" rx="15" fill="#3AECA5"/>
<path d="M35.7106 23C36.2202 23 36.7054 23.1312 37.1461 23.3682C37.3928 23.4673 37.6349 23.6012 37.8683 23.7711C39.6151 25.0434 40.2114 27.8564 39.2 30.0541L26.6471 57.3314H69.1509L71.1259 53.0399H37.4162C36.4742 53.0399 35.7106 52.0793 35.7106 50.8942C35.7106 49.7092 36.4742 48.7485 37.4162 48.7485H73.1008L74.6524 45.3767H40.34C39.3981 45.3767 38.6344 44.416 38.6344 43.231C38.6344 42.0459 39.3981 41.0853 40.34 41.0853H76.1572C76.3083 41.0853 76.4548 41.1104 76.5943 41.1568L78.1816 37.7078C79.1929 35.5101 81.4289 34.76 83.1758 36.0323C84.9226 37.3047 85.5189 40.1177 84.5076 42.3153L74.6331 63.7718C74.0685 65.3938 72.7817 66.5273 71.2841 66.5273H63.8336C64.4899 68.6274 64.4062 71.0705 63.4377 73.1751C61.7521 76.8378 58.0256 78.088 55.1142 75.9674C52.4699 74.0414 51.4075 69.9974 52.4977 66.5273H39.9555C40.6118 68.6274 40.5281 71.0705 39.5596 73.1751C37.874 76.8378 34.1475 78.088 31.2361 75.9674C28.5918 74.0414 27.5294 69.9974 28.6196 66.5273H20.3604C18.3419 66.5273 16.7056 64.4687 16.7056 61.9293C16.7056 61.247 16.8239 60.5994 17.0358 60.0171C17.1099 59.7551 17.2038 59.4979 17.3185 59.2487L29.768 32.1959H18.6548C16.6363 32.1959 15 30.1373 15 27.598C15 25.0586 16.6363 23 18.6548 23H35.7106Z" fill="#0B4B53"/>
</svg>
