<svg width="25" height="25" viewBox="0 0 25 25" fill="none" xmlns="http://www.w3.org/2000/svg">
<path d="M2.03125 0.0683956C1.71875 0.205114 1.65527 0.346715 0.917968 2.5635L0.209961 4.68752H4.08203H7.95409L7.98339 4.5508C7.99804 4.47756 8.16405 3.48635 8.35448 2.34378C8.54491 1.2012 8.71093 0.209997 8.72557 0.131872L8.75487 3.67165e-05H5.46386C2.84179 0.00491953 2.14843 0.0146847 2.03125 0.0683956Z" fill="#3AECA5"/>
<path d="M9.85352 2.2803C9.64844 3.54006 9.47754 4.59475 9.47754 4.62404C9.47754 4.71682 15.5322 4.71682 15.5322 4.62404C15.5322 4.59475 15.3613 3.54006 15.1562 2.2803L14.7754 3.71933e-05H12.5049H10.2344L9.85352 2.2803Z" fill="#3AECA5"/>
<path d="M16.2842 0.131873C16.2988 0.209998 16.4648 1.2012 16.6553 2.34378C16.8457 3.48635 17.0117 4.47756 17.0264 4.5508L17.0557 4.68752H20.9277H24.7998L24.0918 2.5635C23.5889 1.04496 23.3496 0.390661 23.2568 0.283239C23.0127 -0.00972795 23.1103 3.71933e-05 19.5361 3.71933e-05H16.2549L16.2842 0.131873Z" fill="#3AECA5"/>
<path d="M0.0146484 8.27157C0.0292968 10.3272 0.0341796 10.3956 0.131836 10.5274C0.346679 10.8204 0.458984 10.8643 1.03515 10.879L1.56738 10.8985V17.6416C1.56738 24.3506 1.56738 24.3848 1.66992 24.5899C1.74316 24.7412 1.82617 24.8242 1.97754 24.8975L2.18261 25H12.5049H22.8271L23.0322 24.8975C23.1836 24.8242 23.2666 24.7412 23.3398 24.5899C23.4423 24.3848 23.4423 24.3506 23.4423 17.6416V10.8985L23.9746 10.879C24.5507 10.8643 24.663 10.8204 24.8779 10.5274C24.9755 10.3956 24.9804 10.3272 24.9951 8.27157L25.0097 6.15244L21.0888 6.1622L17.1679 6.17685L17.1533 8.53036L17.1435 10.8887H19.5605H21.9775V13.2813V15.6739H12.5049H3.03222V13.2813V10.8887H5.44921H7.8662L7.85643 8.53036L7.84178 6.17685L3.92089 6.1622L0 6.15244L0.0146484 8.27157Z" fill="#3AECA5"/>
<path d="M9.33105 8.52054V10.8887H12.5049H15.6787V8.52054V6.15238H12.5049H9.33105V8.52054Z" fill="#3AECA5"/>
</svg>
